<?xml version="1.0" encoding="UTF-8" standalone="no"?>
<!DOCTYPE svg PUBLIC "-//W3C//DTD SVG 1.1//EN"
 "http://www.w3.org/Graphics/SVG/1.1/DTD/svg11.dtd">
<!-- Generated by graphviz version 2.36.0 (20140111.2315)
 -->
<!-- Title: G Pages: 1 -->
<svg width="398pt" height="494pt"
 viewBox="0.00 0.00 398.00 493.53" xmlns="http://www.w3.org/2000/svg" xmlns:xlink="http://www.w3.org/1999/xlink">
<g id="graph0" class="graph" transform="scale(1 1) rotate(0) translate(4 489.525)">
<title>G</title>
<polygon fill="white" stroke="none" points="-4,4 -4,-489.525 394,-489.525 394,4 -4,4"/>
<!-- S1 -->
<g id="node1" class="node"><title>S1</title>
<ellipse fill="#eff3ff" stroke="#bdd7e7" cx="27" cy="-273.525" rx="27" ry="18"/>
<text text-anchor="middle" x="27" y="-270.125" font-family="serif" font-size="13.00" fill="#2171b5">S1</text>
</g>
<!-- S1&#45;&gt;S1 -->
<!-- Wildcard edge -->
<g id="edge1" class="edge"><title>S1&#45;&gt;S1</title>
<path fill="none" stroke="#9ecae1" d="M17.0768,-290.563C15.0516,-300.383 18.3594,-309.525 27,-309.525 32.4004,-309.525 35.7176,-305.954 36.9517,-300.878"/>
<polygon fill="#9ecae1" stroke="#9ecae1" points="40.4509,-300.553 36.9232,-290.563 33.4509,-300.572 40.4509,-300.553"/>
</g>
<!-- S2 -->
<g id="node2" class="node"><title>S2</title>
<ellipse fill="#eff3ff" stroke="#bdd7e7" cx="139" cy="-449.525" rx="27" ry="18"/>
<text text-anchor="middle" x="139" y="-446.125" font-family="serif" font-size="13.00" fill="#2171b5">S2</text>
</g>
<!-- S1&#45;&gt;S2 -->
<!-- Wildcard edge -->
<g id="edge14" class="edge"><title>S1&#45;&gt;S2</title>
<path fill="none" stroke="#9ecae1" d="M33.9107,-291.06C41.2888,-311.811 55.0279,-347.016 72,-374.525 86.581,-398.159 93.468,-401.844 112,-422.525 113.335,-424.016 114.725,-425.538 116.137,-427.062"/>
<polygon fill="#9ecae1" stroke="#9ecae1" points="113.818,-429.704 123.229,-434.569 118.906,-424.896 113.818,-429.704"/>
<text text-anchor="middle" x="83" y="-405.525" font-family="sans-serif" font-size="10.00" fill="#3182bd">0.25</text>
</g>
<!-- C1 -->
<g id="node3" class="node"><title>C1</title>
<ellipse fill="#eff3ff" stroke="#bdd7e7" cx="139" cy="-377.525" rx="27" ry="18"/>
<text text-anchor="middle" x="139" y="-374.125" font-family="serif" font-size="13.00" fill="#2171b5">C1</text>
</g>
<!-- S1&#45;&gt;C1 -->
<!-- Wildcard edge -->
<g id="edge11" class="edge"><title>S1&#45;&gt;C1</title>
<path fill="none" stroke="#9ecae1" d="M35.1489,-290.872C42.4388,-306.792 55.0754,-330.169 72,-345.525 81.5044,-354.149 93.7543,-360.942 105.115,-366.01"/>
<polygon fill="#9ecae1" stroke="#9ecae1" points="103.792,-369.25 114.369,-369.863 106.483,-362.788 103.792,-369.25"/>
<text text-anchor="middle" x="83" y="-362.525" font-family="sans-serif" font-size="10.00" fill="#3182bd">0.05</text>
</g>
<!-- N3 -->
<g id="node9" class="node"><title>N3</title>
<ellipse fill="#eff3ff" stroke="#bdd7e7" cx="139" cy="-163.525" rx="27" ry="18"/>
<text text-anchor="middle" x="139" y="-160.125" font-family="serif" font-size="13.00" fill="#2171b5">N3</text>
</g>
<!-- S1&#45;&gt;N3 -->
<!-- Wildcard edge -->
<g id="edge13" class="edge"><title>S1&#45;&gt;N3</title>
<path fill="none" stroke="#9ecae1" d="M39.0095,-257.221C47.3905,-245.349 59.5687,-229.198 72,-216.525 84.0406,-204.251 98.8612,-192.126 111.406,-182.577"/>
<polygon fill="#9ecae1" stroke="#9ecae1" points="113.748,-185.197 119.665,-176.408 109.559,-179.589 113.748,-185.197"/>
<text text-anchor="middle" x="83" y="-219.525" font-family="sans-serif" font-size="10.00" fill="#3182bd">0.20</text>
</g>
<!-- 0 -->
<g id="node10" class="node"><title>0</title>
<ellipse fill="#eff3ff" stroke="#bdd7e7" cx="363" cy="-82.5254" rx="27" ry="18"/>
<text text-anchor="middle" x="363" y="-79.1254" font-family="serif" font-size="13.00" fill="#2171b5">0</text>
</g>
<!-- S1&#45;&gt;0 -->
<!-- Wildcard edge -->
<g id="edge12" class="edge"><title>S1&#45;&gt;0</title>
<path fill="none" stroke="#9ecae1" d="M52.3728,-279.831C98.6332,-290.494 201.384,-307.855 278,-274.525 340.524,-247.326 356.522,-157.059 360.606,-110.636"/>
<polygon fill="#9ecae1" stroke="#9ecae1" points="364.098,-110.872 361.36,-100.637 357.118,-110.345 364.098,-110.872"/>
<text text-anchor="middle" x="195" y="-296.525" font-family="sans-serif" font-size="10.00" fill="#3182bd">0.25</text>
</g>
<!-- N4 -->
<g id="node11" class="node"><title>N4</title>
<ellipse fill="#eff3ff" stroke="#bdd7e7" cx="139" cy="-109.525" rx="27" ry="18"/>
<text text-anchor="middle" x="139" y="-106.125" font-family="serif" font-size="13.00" fill="#2171b5">N4</text>
</g>
<!-- S1&#45;&gt;N4 -->
<!-- Wildcard edge -->
<g id="edge22" class="edge"><title>S1&#45;&gt;N4</title>
<path fill="none" stroke="#9ecae1" d="M34.8241,-256.023C42.5535,-237.14 56.1546,-206.55 72,-182.525 86.9168,-159.909 93.7088,-156.512 112,-136.525 113.351,-135.049 114.753,-133.538 116.173,-132.022"/>
<polygon fill="#9ecae1" stroke="#9ecae1" points="118.937,-134.194 123.287,-124.534 113.862,-129.373 118.937,-134.194"/>
<text text-anchor="middle" x="83" y="-185.525" font-family="sans-serif" font-size="10.00" fill="#3182bd">0.25</text>
</g>
<!-- S2&#45;&gt;S2 -->
<!-- Wildcard edge -->
<g id="edge2" class="edge"><title>S2&#45;&gt;S2</title>
<path fill="none" stroke="#9ecae1" d="M129.077,-466.563C127.052,-476.383 130.359,-485.525 139,-485.525 144.4,-485.525 147.718,-481.954 148.952,-476.878"/>
<polygon fill="#9ecae1" stroke="#9ecae1" points="152.451,-476.553 148.923,-466.563 145.451,-476.572 152.451,-476.553"/>
</g>
<!-- C4 -->
<g id="node6" class="node"><title>C4</title>
<ellipse fill="#eff3ff" stroke="#bdd7e7" cx="251" cy="-449.525" rx="27" ry="18"/>
<text text-anchor="middle" x="251" y="-446.125" font-family="serif" font-size="13.00" fill="#2171b5">C4</text>
</g>
<!-- S2&#45;&gt;C4 -->
<!-- Wildcard edge -->
<g id="edge15" class="edge"><title>S2&#45;&gt;C4</title>
<path fill="none" stroke="#9ecae1" d="M166.068,-449.525C180.212,-449.525 197.925,-449.525 213.428,-449.525"/>
<polygon fill="#9ecae1" stroke="#9ecae1" points="213.737,-453.025 223.737,-449.525 213.737,-446.025 213.737,-453.025"/>
<text text-anchor="middle" x="195" y="-452.525" font-family="sans-serif" font-size="10.00" fill="#3182bd">1.00</text>
</g>
<!-- C1&#45;&gt;C1 -->
<!-- Wildcard edge -->
<g id="edge3" class="edge"><title>C1&#45;&gt;C1</title>
<path fill="none" stroke="#9ecae1" d="M129.077,-394.563C127.052,-404.383 130.359,-413.525 139,-413.525 144.4,-413.525 147.718,-409.954 148.952,-404.878"/>
<polygon fill="#9ecae1" stroke="#9ecae1" points="152.451,-404.553 148.923,-394.563 145.451,-404.572 152.451,-404.553"/>
</g>
<!-- C2 -->
<g id="node4" class="node"><title>C2</title>
<ellipse fill="#eff3ff" stroke="#bdd7e7" cx="251" cy="-229.525" rx="27" ry="18"/>
<text text-anchor="middle" x="251" y="-226.125" font-family="serif" font-size="13.00" fill="#2171b5">C2</text>
</g>
<!-- C2&#45;&gt;S1 -->
<!-- Wildcard edge -->
<g id="edge16" class="edge"><title>C2&#45;&gt;S1</title>
<path fill="none" stroke="#9ecae1" d="M224.716,-234.537C185.004,-242.408 107.909,-257.688 62.9285,-266.603"/>
<polygon fill="#9ecae1" stroke="#9ecae1" points="62.1634,-263.186 53.0347,-268.564 63.5244,-270.053 62.1634,-263.186"/>
<text text-anchor="middle" x="139" y="-259.525" font-family="sans-serif" font-size="10.00" fill="#3182bd">1.00</text>
</g>
<!-- C2&#45;&gt;C2 -->
<!-- Wildcard edge -->
<g id="edge4" class="edge"><title>C2&#45;&gt;C2</title>
<path fill="none" stroke="#9ecae1" d="M241.077,-246.563C239.052,-256.383 242.359,-265.525 251,-265.525 256.4,-265.525 259.718,-261.954 260.952,-256.878"/>
<polygon fill="#9ecae1" stroke="#9ecae1" points="264.451,-256.553 260.923,-246.563 257.451,-256.572 264.451,-256.553"/>
</g>
<!-- C3 -->
<g id="node5" class="node"><title>C3</title>
<ellipse fill="#eff3ff" stroke="#bdd7e7" cx="251" cy="-85.5254" rx="27" ry="18"/>
<text text-anchor="middle" x="251" y="-82.1254" font-family="serif" font-size="13.00" fill="#2171b5">C3</text>
</g>
<!-- C3&#45;&gt;C3 -->
<!-- Wildcard edge -->
<g id="edge5" class="edge"><title>C3&#45;&gt;C3</title>
<path fill="none" stroke="#9ecae1" d="M241.077,-102.563C239.052,-112.383 242.359,-121.525 251,-121.525 256.4,-121.525 259.718,-117.954 260.952,-112.878"/>
<polygon fill="#9ecae1" stroke="#9ecae1" points="264.451,-112.553 260.923,-102.563 257.451,-112.572 264.451,-112.553"/>
</g>
<!-- C4&#45;&gt;C4 -->
<!-- Wildcard edge -->
<g id="edge6" class="edge"><title>C4&#45;&gt;C4</title>
<path fill="none" stroke="#9ecae1" d="M241.077,-466.563C239.052,-476.383 242.359,-485.525 251,-485.525 256.4,-485.525 259.718,-481.954 260.952,-476.878"/>
<polygon fill="#9ecae1" stroke="#9ecae1" points="264.451,-476.553 260.923,-466.563 257.451,-476.572 264.451,-476.553"/>
</g>
<!-- C7 -->
<g id="node7" class="node"><title>C7</title>
<ellipse fill="#eff3ff" stroke="#bdd7e7" cx="251" cy="-157.525" rx="27" ry="18"/>
<text text-anchor="middle" x="251" y="-154.125" font-family="serif" font-size="13.00" fill="#2171b5">C7</text>
</g>
<!-- C7&#45;&gt;C7 -->
<!-- Wildcard edge -->
<g id="edge7" class="edge"><title>C7&#45;&gt;C7</title>
<path fill="none" stroke="#9ecae1" d="M241.077,-174.563C239.052,-184.383 242.359,-193.525 251,-193.525 256.4,-193.525 259.718,-189.954 260.952,-184.878"/>
<polygon fill="#9ecae1" stroke="#9ecae1" points="264.451,-184.553 260.923,-174.563 257.451,-184.572 264.451,-184.553"/>
</g>
<!-- C8 -->
<g id="node8" class="node"><title>C8</title>
<ellipse fill="#eff3ff" stroke="#bdd7e7" cx="363" cy="-259.525" rx="27" ry="18"/>
<text text-anchor="middle" x="363" y="-256.125" font-family="serif" font-size="13.00" fill="#2171b5">C8</text>
</g>
<!-- C7&#45;&gt;C8 -->
<!-- Wildcard edge -->
<g id="edge17" class="edge"><title>C7&#45;&gt;C8</title>
<path fill="none" stroke="#9ecae1" d="M267.76,-172.14C286.384,-189.409 317.533,-218.292 338.886,-238.093"/>
<polygon fill="#9ecae1" stroke="#9ecae1" points="336.556,-240.705 346.269,-244.938 341.316,-235.573 336.556,-240.705"/>
<text text-anchor="middle" x="307" y="-220.525" font-family="sans-serif" font-size="10.00" fill="#3182bd">0.60</text>
</g>
<!-- C7&#45;&gt;0 -->
<!-- Wildcard edge -->
<g id="edge24" class="edge"><title>C7&#45;&gt;0</title>
<path fill="none" stroke="#9ecae1" d="M270.66,-144.803C288.387,-132.716 315.23,-114.414 335.235,-100.774"/>
<polygon fill="#9ecae1" stroke="#9ecae1" points="337.325,-103.585 343.616,-95.0602 333.382,-97.8018 337.325,-103.585"/>
<text text-anchor="middle" x="307" y="-129.525" font-family="sans-serif" font-size="10.00" fill="#3182bd">0.40</text>
</g>
<!-- C8&#45;&gt;S1 -->
<!-- Wildcard edge -->
<g id="edge18" class="edge"><title>C8&#45;&gt;S1</title>
<path fill="none" stroke="#9ecae1" d="M351.991,-276.195C344.262,-287.336 332.458,-301.088 318,-307.525 218.119,-351.996 175.313,-343.306 72,-307.525 64.1749,-304.815 56.6536,-300.104 50.111,-295.037"/>
<polygon fill="#9ecae1" stroke="#9ecae1" points="52.3046,-292.308 42.3981,-288.552 47.7998,-297.666 52.3046,-292.308"/>
<text text-anchor="middle" x="195" y="-340.525" font-family="sans-serif" font-size="10.00" fill="#3182bd">1.00</text>
</g>
<!-- C8&#45;&gt;C8 -->
<!-- Wildcard edge -->
<g id="edge8" class="edge"><title>C8&#45;&gt;C8</title>
<path fill="none" stroke="#9ecae1" d="M353.077,-276.563C351.052,-286.383 354.359,-295.525 363,-295.525 368.4,-295.525 371.718,-291.954 372.952,-286.878"/>
<polygon fill="#9ecae1" stroke="#9ecae1" points="376.451,-286.553 372.923,-276.563 369.451,-286.572 376.451,-286.553"/>
</g>
<!-- N3&#45;&gt;C2 -->
<!-- Wildcard edge -->
<g id="edge19" class="edge"><title>N3&#45;&gt;C2</title>
<path fill="none" stroke="#9ecae1" d="M159.666,-175.325C176.844,-185.632 201.997,-200.723 221.401,-212.366"/>
<polygon fill="#9ecae1" stroke="#9ecae1" points="219.758,-215.462 230.134,-217.606 223.359,-209.459 219.758,-215.462"/>
<text text-anchor="middle" x="195" y="-204.525" font-family="sans-serif" font-size="10.00" fill="#3182bd">0.30</text>
</g>
<!-- N3&#45;&gt;C3 -->
<!-- Wildcard edge -->
<g id="edge20" class="edge"><title>N3&#45;&gt;C3</title>
<path fill="none" stroke="#9ecae1" d="M158.164,-150.645C175.998,-138 203.394,-118.573 223.625,-104.227"/>
<polygon fill="#9ecae1" stroke="#9ecae1" points="225.676,-107.064 231.809,-98.4246 221.627,-101.354 225.676,-107.064"/>
<text text-anchor="middle" x="195" y="-133.525" font-family="sans-serif" font-size="10.00" fill="#3182bd">0.20</text>
</g>
<!-- N3&#45;&gt;C7 -->
<!-- Wildcard edge -->
<g id="edge21" class="edge"><title>N3&#45;&gt;C7</title>
<path fill="none" stroke="#9ecae1" d="M166.068,-162.103C180.212,-161.332 197.925,-160.366 213.428,-159.52"/>
<polygon fill="#9ecae1" stroke="#9ecae1" points="213.943,-162.997 223.737,-158.958 213.562,-156.008 213.943,-162.997"/>
<text text-anchor="middle" x="195" y="-163.525" font-family="sans-serif" font-size="10.00" fill="#3182bd">0.10</text>
</g>
<!-- N3&#45;&gt;N3 -->
<!-- Wildcard edge -->
<g id="edge9" class="edge"><title>N3&#45;&gt;N3</title>
<path fill="none" stroke="#9ecae1" d="M129.077,-180.563C127.052,-190.383 130.359,-199.525 139,-199.525 144.4,-199.525 147.718,-195.954 148.952,-190.878"/>
<polygon fill="#9ecae1" stroke="#9ecae1" points="152.451,-190.553 148.923,-180.563 145.451,-190.572 152.451,-190.553"/>
</g>
<!-- N3&#45;&gt;0 -->
<!-- Wildcard edge -->
<g id="edge26" class="edge"><title>N3&#45;&gt;0</title>
<path fill="none" stroke="#9ecae1" d="M155.102,-148.849C158.816,-144.972 162.678,-140.701 166,-136.525 195.395,-99.5783 182.49,-70.0206 224,-47.5254 259.492,-28.2915 305.867,-47.8454 334.792,-64.5236"/>
<polygon fill="#9ecae1" stroke="#9ecae1" points="333.161,-67.6273 343.534,-69.7848 336.771,-61.6296 333.161,-67.6273"/>
<text text-anchor="middle" x="251" y="-50.5254" font-family="sans-serif" font-size="10.00" fill="#3182bd">0.40</text>
</g>
<!-- 0&#45;&gt;0 -->
<!-- Wildcard edge -->
<g id="edge10" class="edge"><title>0&#45;&gt;0</title>
<path fill="none" stroke="#9ecae1" d="M353.077,-99.5627C351.052,-109.383 354.359,-118.525 363,-118.525 368.4,-118.525 371.718,-114.954 372.952,-109.878"/>
<polygon fill="#9ecae1" stroke="#9ecae1" points="376.451,-109.553 372.923,-99.5627 369.451,-109.572 376.451,-109.553"/>
</g>
<!-- N4&#45;&gt;S1 -->
<!-- Wildcard edge -->
<g id="edge23" class="edge"><title>N4&#45;&gt;S1</title>
<path fill="none" stroke="#9ecae1" d="M113.388,-115.824C99.5107,-120.532 82.8366,-128.308 72,-140.525 45.6962,-170.18 35.0508,-215.984 30.7875,-245.355"/>
<polygon fill="#9ecae1" stroke="#9ecae1" points="27.3037,-245.004 29.4884,-255.371 34.2455,-245.905 27.3037,-245.004"/>
<text text-anchor="middle" x="83" y="-143.525" font-family="sans-serif" font-size="10.00" fill="#3182bd">0.05</text>
</g>
<!-- N4&#45;&gt;0 -->
<!-- Wildcard edge -->
<g id="edge25" class="edge"><title>N4&#45;&gt;0</title>
<path fill="none" stroke="#9ecae1" d="M145.371,-91.8196C151.857,-73.0206 164.403,-43.4627 184,-24.5254 198.153,-10.8487 204.8,-9.85357 224,-5.52539 265.579,3.84784 284.928,2.36233 318,-24.5254 329.22,-33.6478 339.2,-46.2013 346.807,-57.2969"/>
<polygon fill="#9ecae1" stroke="#9ecae1" points="343.966,-59.3471 352.377,-65.7893 349.819,-55.5079 343.966,-59.3471"/>
<text text-anchor="middle" x="251" y="-8.52539" font-family="sans-serif" font-size="10.00" fill="#3182bd">0.95</text>
</g>
</g>
</svg>
