<?xml version="1.0" encoding="UTF-8" standalone="no"?>
<!DOCTYPE svg PUBLIC "-//W3C//DTD SVG 1.1//EN"
 "http://www.w3.org/Graphics/SVG/1.1/DTD/svg11.dtd">
<!-- Generated by graphviz version 2.36.0 (20140111.2315)
 -->
<!-- Title: G Pages: 1 -->
<svg width="510pt" height="454pt"
 viewBox="0.00 0.00 510.00 454.00" xmlns="http://www.w3.org/2000/svg" xmlns:xlink="http://www.w3.org/1999/xlink">
<g id="graph0" class="graph" transform="scale(1 1) rotate(0) translate(4 450)">
<title>G</title>
<polygon fill="white" stroke="none" points="-4,4 -4,-450 506,-450 506,4 -4,4"/>
<!-- S1 -->
<g id="node1" class="node"><title>S1</title>
<ellipse fill="#eff3ff" stroke="#bdd7e7" cx="139" cy="-219" rx="27" ry="18"/>
<text text-anchor="middle" x="139" y="-215.6" font-family="serif" font-size="13.00" fill="#2171b5">S1</text>
</g>
<!-- S2 -->
<g id="node2" class="node"><title>S2</title>
<ellipse fill="#eff3ff" stroke="#bdd7e7" cx="251" cy="-428" rx="27" ry="18"/>
<text text-anchor="middle" x="251" y="-424.6" font-family="serif" font-size="13.00" fill="#2171b5">S2</text>
</g>
<!-- S1&#45;&gt;S2 -->
<!-- Wildcard edge -->
<g id="edge1" class="edge"><title>S1&#45;&gt;S2</title>
<path fill="none" stroke="#9ecae1" d="M147.599,-236.217C153.027,-248.788 160.339,-266.306 166,-282 175.158,-307.39 172.488,-315.588 184,-340 197.828,-369.323 203.78,-375.658 224,-401 225.248,-402.564 226.571,-404.142 227.934,-405.708"/>
<polygon fill="#9ecae1" stroke="#9ecae1" points="225.57,-408.309 234.906,-413.317 230.731,-403.579 225.57,-408.309"/>
<text text-anchor="middle" x="195" y="-381" font-family="sans-serif" font-size="10.00" fill="#3182bd">0.25</text>
</g>
<!-- C1 -->
<g id="node3" class="node"><title>C1</title>
<ellipse fill="#eff3ff" stroke="#bdd7e7" cx="251" cy="-374" rx="27" ry="18"/>
<text text-anchor="middle" x="251" y="-370.6" font-family="serif" font-size="13.00" fill="#2171b5">C1</text>
</g>
<!-- S1&#45;&gt;C1 -->
<!-- Wildcard edge -->
<g id="edge2" class="edge"><title>S1&#45;&gt;C1</title>
<path fill="none" stroke="#9ecae1" d="M149.001,-235.987C157.492,-251.647 170.847,-275.367 184,-295 200.228,-319.224 204.969,-324.909 224,-347 225.306,-348.516 226.673,-350.057 228.069,-351.596"/>
<polygon fill="#9ecae1" stroke="#9ecae1" points="225.735,-354.225 235.121,-359.139 230.848,-349.444 225.735,-354.225"/>
<text text-anchor="middle" x="195" y="-328" font-family="sans-serif" font-size="10.00" fill="#3182bd">0.05</text>
</g>
<!-- N1 -->
<g id="node11" class="node"><title>N1</title>
<ellipse fill="#ffffb2" stroke="#fed976" cx="251" cy="-320" rx="27" ry="18"/>
<text text-anchor="middle" x="251" y="-316.6" font-family="serif" font-size="13.00" fill="#fd8d3c">N1</text>
</g>
<!-- S1&#45;&gt;N1 -->
<!-- Wildcard edge -->
<g id="edge3" class="edge"><title>S1&#45;&gt;N1</title>
<path fill="none" stroke="#9ecae1" d="M155.359,-233.897C163.757,-241.983 174.381,-252.114 184,-261 197.799,-273.747 213.466,-287.771 226.072,-298.948"/>
<polygon fill="#9ecae1" stroke="#9ecae1" points="224.055,-301.835 233.864,-305.839 228.692,-296.592 224.055,-301.835"/>
<text text-anchor="middle" x="195" y="-283" font-family="sans-serif" font-size="10.00" fill="#3182bd">0.10</text>
</g>
<!-- N2 -->
<g id="node12" class="node"><title>N2</title>
<ellipse fill="#ffffb2" stroke="#fed976" cx="251" cy="-266" rx="27" ry="18"/>
<text text-anchor="middle" x="251" y="-262.6" font-family="serif" font-size="13.00" fill="#fd8d3c">N2</text>
</g>
<!-- S1&#45;&gt;N2 -->
<!-- Wildcard edge -->
<g id="edge4" class="edge"><title>S1&#45;&gt;N2</title>
<path fill="none" stroke="#9ecae1" d="M162.26,-228.511C178.363,-235.391 200.352,-244.787 218.288,-252.45"/>
<polygon fill="#9ecae1" stroke="#9ecae1" points="217.202,-255.792 227.773,-256.503 219.952,-249.355 217.202,-255.792"/>
<text text-anchor="middle" x="195" y="-249" font-family="sans-serif" font-size="10.00" fill="#3182bd">0.15</text>
</g>
<!-- N3 -->
<g id="node13" class="node"><title>N3</title>
<ellipse fill="#eff3ff" stroke="#bdd7e7" cx="251" cy="-162" rx="27" ry="18"/>
<text text-anchor="middle" x="251" y="-158.6" font-family="serif" font-size="13.00" fill="#2171b5">N3</text>
</g>
<!-- S1&#45;&gt;N3 -->
<!-- Wildcard edge -->
<g id="edge5" class="edge"><title>S1&#45;&gt;N3</title>
<path fill="none" stroke="#9ecae1" d="M160,-207.272C167.472,-202.987 176.068,-198.171 184,-194 195.333,-188.041 207.945,-181.827 219.083,-176.477"/>
<polygon fill="#9ecae1" stroke="#9ecae1" points="220.9,-179.488 228.422,-172.026 217.889,-173.169 220.9,-179.488"/>
<text text-anchor="middle" x="195" y="-197" font-family="sans-serif" font-size="10.00" fill="#3182bd">0.20</text>
</g>
<!-- N4 -->
<g id="node14" class="node"><title>N4</title>
<ellipse fill="#eff3ff" stroke="#bdd7e7" cx="251" cy="-18" rx="27" ry="18"/>
<text text-anchor="middle" x="251" y="-14.6" font-family="serif" font-size="13.00" fill="#2171b5">N4</text>
</g>
<!-- S1&#45;&gt;N4 -->
<!-- Wildcard edge -->
<g id="edge6" class="edge"><title>S1&#45;&gt;N4</title>
<path fill="none" stroke="#9ecae1" d="M139.605,-200.971C139.818,-166.667 145.043,-91.3863 184,-46 192.026,-36.6497 203.714,-30.3438 215.033,-26.126"/>
<polygon fill="#9ecae1" stroke="#9ecae1" points="216.368,-29.3716 224.782,-22.933 214.19,-22.7192 216.368,-29.3716"/>
<text text-anchor="middle" x="195" y="-49" font-family="sans-serif" font-size="10.00" fill="#3182bd">0.25</text>
</g>
<!-- C4 -->
<g id="node6" class="node"><title>C4</title>
<ellipse fill="#eff3ff" stroke="#bdd7e7" cx="363" cy="-428" rx="27" ry="18"/>
<text text-anchor="middle" x="363" y="-424.6" font-family="serif" font-size="13.00" fill="#2171b5">C4</text>
</g>
<!-- S2&#45;&gt;C4 -->
<!-- Wildcard edge -->
<g id="edge7" class="edge"><title>S2&#45;&gt;C4</title>
<path fill="none" stroke="#9ecae1" d="M278.068,-428C292.212,-428 309.925,-428 325.428,-428"/>
<polygon fill="#9ecae1" stroke="#9ecae1" points="325.737,-431.5 335.737,-428 325.737,-424.5 325.737,-431.5"/>
<text text-anchor="middle" x="307" y="-431" font-family="sans-serif" font-size="10.00" fill="#3182bd">1.00</text>
</g>
<!-- C2 -->
<g id="node4" class="node"><title>C2</title>
<ellipse fill="#eff3ff" stroke="#bdd7e7" cx="363" cy="-225" rx="27" ry="18"/>
<text text-anchor="middle" x="363" y="-221.6" font-family="serif" font-size="13.00" fill="#2171b5">C2</text>
</g>
<!-- C2&#45;&gt;S1 -->
<!-- Wildcard edge -->
<g id="edge19" class="edge"><title>C2&#45;&gt;S1</title>
<path fill="none" stroke="#9ecae1" d="M335.696,-224.289C296.162,-223.221 221.295,-221.197 176.498,-219.986"/>
<polygon fill="#9ecae1" stroke="#9ecae1" points="176.429,-216.483 166.338,-219.712 176.24,-223.481 176.429,-216.483"/>
<text text-anchor="middle" x="251" y="-226" font-family="sans-serif" font-size="10.00" fill="#3182bd">1.00</text>
</g>
<!-- C3 -->
<g id="node5" class="node"><title>C3</title>
<ellipse fill="#eff3ff" stroke="#bdd7e7" cx="363" cy="-171" rx="27" ry="18"/>
<text text-anchor="middle" x="363" y="-167.6" font-family="serif" font-size="13.00" fill="#2171b5">C3</text>
</g>
<!-- C5 -->
<g id="node7" class="node"><title>C5</title>
<ellipse fill="#ffffb2" stroke="#fed976" cx="27" cy="-314" rx="27" ry="18"/>
<text text-anchor="middle" x="27" y="-310.6" font-family="serif" font-size="13.00" fill="#fd8d3c">C5</text>
</g>
<!-- N6 -->
<g id="node16" class="node"><title>N6</title>
<ellipse fill="#ffffb2" stroke="#fed976" cx="139" cy="-309" rx="27" ry="18"/>
<text text-anchor="middle" x="139" y="-305.6" font-family="serif" font-size="13.00" fill="#fd8d3c">N6</text>
</g>
<!-- C5&#45;&gt;N6 -->
<!-- Wildcard edge -->
<g id="edge8" class="edge"><title>C5&#45;&gt;N6</title>
<path fill="none" stroke="#9ecae1" d="M54.0685,-312.815C68.2123,-312.172 85.9247,-311.367 101.428,-310.662"/>
<polygon fill="#9ecae1" stroke="#9ecae1" points="101.907,-314.144 111.737,-310.194 101.589,-307.152 101.907,-314.144"/>
<text text-anchor="middle" x="83" y="-314" font-family="sans-serif" font-size="10.00" fill="#3182bd">1.00</text>
</g>
<!-- C6 -->
<g id="node8" class="node"><title>C6</title>
<ellipse fill="#ffffb2" stroke="#fed976" cx="27" cy="-248" rx="27" ry="18"/>
<text text-anchor="middle" x="27" y="-244.6" font-family="serif" font-size="13.00" fill="#fd8d3c">C6</text>
</g>
<!-- C6&#45;&gt;S1 -->
<!-- Wildcard edge -->
<g id="edge9" class="edge"><title>C6&#45;&gt;S1</title>
<path fill="none" stroke="#9ecae1" d="M52.4126,-241.564C67.5084,-237.584 87.1118,-232.416 103.748,-228.03"/>
<polygon fill="#9ecae1" stroke="#9ecae1" points="104.878,-231.352 113.656,-225.418 103.094,-224.583 104.878,-231.352"/>
<text text-anchor="middle" x="83" y="-239" font-family="sans-serif" font-size="10.00" fill="#3182bd">1.00</text>
</g>
<!-- C7 -->
<g id="node9" class="node"><title>C7</title>
<ellipse fill="#eff3ff" stroke="#bdd7e7" cx="363" cy="-117" rx="27" ry="18"/>
<text text-anchor="middle" x="363" y="-113.6" font-family="serif" font-size="13.00" fill="#2171b5">C7</text>
</g>
<!-- C8 -->
<g id="node10" class="node"><title>C8</title>
<ellipse fill="#eff3ff" stroke="#bdd7e7" cx="475" cy="-78" rx="27" ry="18"/>
<text text-anchor="middle" x="475" y="-74.6" font-family="serif" font-size="13.00" fill="#2171b5">C8</text>
</g>
<!-- C7&#45;&gt;C8 -->
<!-- Wildcard edge -->
<g id="edge10" class="edge"><title>C7&#45;&gt;C8</title>
<path fill="none" stroke="#9ecae1" d="M387.06,-108.824C402.648,-103.298 423.475,-95.9135 440.836,-89.7581"/>
<polygon fill="#9ecae1" stroke="#9ecae1" points="442.336,-92.9397 450.592,-86.2992 439.997,-86.3421 442.336,-92.9397"/>
<text text-anchor="middle" x="419" y="-104" font-family="sans-serif" font-size="10.00" fill="#3182bd">0.60</text>
</g>
<!-- N7 -->
<g id="node17" class="node"><title>N7</title>
<ellipse fill="#ffffb2" stroke="#fed976" cx="475" cy="-138" rx="27" ry="18"/>
<text text-anchor="middle" x="475" y="-134.6" font-family="serif" font-size="13.00" fill="#fd8d3c">N7</text>
</g>
<!-- C7&#45;&gt;N7 -->
<!-- Wildcard edge -->
<g id="edge18" class="edge"><title>C7&#45;&gt;N7</title>
<path fill="none" stroke="#9ecae1" d="M389.236,-121.818C403.909,-124.619 422.627,-128.192 438.738,-131.268"/>
<polygon fill="#9ecae1" stroke="#9ecae1" points="438.402,-134.767 448.881,-133.205 439.715,-127.891 438.402,-134.767"/>
<text text-anchor="middle" x="419" y="-133" font-family="sans-serif" font-size="10.00" fill="#3182bd">0.40</text>
</g>
<!-- C8&#45;&gt;S1 -->
<!-- Wildcard edge -->
<g id="edge11" class="edge"><title>C8&#45;&gt;S1</title>
<path fill="none" stroke="#9ecae1" d="M447.948,-77.9911C419.928,-78.5058 374.245,-80.868 336,-90 283.822,-102.459 268.763,-105.434 224,-135 198.779,-151.658 174.906,-176.773 159.103,-195.202"/>
<polygon fill="#9ecae1" stroke="#9ecae1" points="156.183,-193.236 152.434,-203.145 161.544,-197.737 156.183,-193.236"/>
<text text-anchor="middle" x="307" y="-103" font-family="sans-serif" font-size="10.00" fill="#3182bd">1.00</text>
</g>
<!-- N3&#45;&gt;C2 -->
<!-- Wildcard edge -->
<g id="edge12" class="edge"><title>N3&#45;&gt;C2</title>
<path fill="none" stroke="#9ecae1" d="M273.415,-172.305C286.484,-178.772 303.425,-187.475 318,-196 323.597,-199.274 329.468,-202.957 335.031,-206.573"/>
<polygon fill="#9ecae1" stroke="#9ecae1" points="333.166,-209.536 343.438,-212.131 337.026,-203.696 333.166,-209.536"/>
<text text-anchor="middle" x="307" y="-199" font-family="sans-serif" font-size="10.00" fill="#3182bd">0.30</text>
</g>
<!-- N3&#45;&gt;C3 -->
<!-- Wildcard edge -->
<g id="edge13" class="edge"><title>N3&#45;&gt;C3</title>
<path fill="none" stroke="#9ecae1" d="M278.079,-160.792C290.24,-160.538 304.89,-160.673 318,-162 321.081,-162.312 324.265,-162.744 327.447,-163.251"/>
<polygon fill="#9ecae1" stroke="#9ecae1" points="327.003,-166.727 337.467,-165.071 328.254,-159.84 327.003,-166.727"/>
<text text-anchor="middle" x="307" y="-165" font-family="sans-serif" font-size="10.00" fill="#3182bd">0.20</text>
</g>
<!-- N3&#45;&gt;C7 -->
<!-- Wildcard edge -->
<g id="edge14" class="edge"><title>N3&#45;&gt;C7</title>
<path fill="none" stroke="#9ecae1" d="M274.526,-152.785C290.542,-146.233 312.282,-137.339 330.082,-130.057"/>
<polygon fill="#9ecae1" stroke="#9ecae1" points="331.574,-133.228 339.505,-126.203 328.924,-126.75 331.574,-133.228"/>
<text text-anchor="middle" x="307" y="-147" font-family="sans-serif" font-size="10.00" fill="#3182bd">0.10</text>
</g>
<!-- N4&#45;&gt;S1 -->
<!-- Wildcard edge -->
<g id="edge15" class="edge"><title>N4&#45;&gt;S1</title>
<path fill="none" stroke="#9ecae1" d="M226.521,-10.2922C212.698,-7.31737 195.69,-6.57271 184,-16 157.195,-37.6177 145.896,-139.965 141.886,-190.555"/>
<polygon fill="#9ecae1" stroke="#9ecae1" points="138.375,-190.569 141.117,-200.803 145.355,-191.092 138.375,-190.569"/>
<text text-anchor="middle" x="195" y="-19" font-family="sans-serif" font-size="10.00" fill="#3182bd">0.05</text>
</g>
<!-- N5 -->
<g id="node15" class="node"><title>N5</title>
<ellipse fill="#ffffb2" stroke="#fed976" cx="27" cy="-194" rx="27" ry="18"/>
<text text-anchor="middle" x="27" y="-190.6" font-family="serif" font-size="13.00" fill="#fd8d3c">N5</text>
</g>
<!-- N5&#45;&gt;S1 -->
<!-- Wildcard edge -->
<g id="edge16" class="edge"><title>N5&#45;&gt;S1</title>
<path fill="none" stroke="#9ecae1" d="M52.6861,-199.61C67.5836,-202.996 86.7963,-207.363 103.216,-211.095"/>
<polygon fill="#9ecae1" stroke="#9ecae1" points="102.489,-214.518 113.016,-213.322 104.04,-207.692 102.489,-214.518"/>
<text text-anchor="middle" x="83" y="-212" font-family="sans-serif" font-size="10.00" fill="#3182bd">0.05</text>
</g>
<!-- N6&#45;&gt;C5 -->
<!-- Wildcard edge -->
<g id="edge17" class="edge"><title>N6&#45;&gt;C5</title>
<path fill="none" stroke="#9ecae1" d="M115.396,-300.151C102.652,-296.266 86.4384,-293.161 72,-296 67.5054,-296.884 62.8917,-298.23 58.4216,-299.798"/>
<polygon fill="#9ecae1" stroke="#9ecae1" points="57.011,-296.591 48.9675,-303.487 59.5557,-303.112 57.011,-296.591"/>
<text text-anchor="middle" x="83" y="-299" font-family="sans-serif" font-size="10.00" fill="#3182bd">0.15</text>
</g>
</g>
</svg>
